# xmcd
#
# Track frame offsets:
#	150
#	16115
#	32114
#	49884
#	63347
#	82553
#	105234
#	123922
#	137802
#	165050
#	185905
#	202131
#	231024
#	250992
#
# Disc length: 3499 seconds
# Revision: 0
# Processed by: cddbd v1.5.2PL0 Copyright (c) Steve Scherf et al.
# Submitted via: dBpowerAMP V12.0
#
DISCID=ad0da90e
DTITLE=Florent Vintrigner - L'homme prehistorique
DYEAR=2009
DGENRE=Chanson
TTITLE0=En pensant a vous
TTITLE1=Tes grands yeux de buve
TTITLE2=L'homme prehistorique
TTITLE3=La femme au chat noir
TTITLE4=Illusion
TTITLE5=Perdu
TTITLE6=Tes cliques et tes claques
TTITLE7=Compte a rebours
TTITLE8=L'hirondelle
TTITLE9=La cavaliere du vent
TTITLE10=La traversee
TTITLE11=Le pendu
TTITLE12=Tchao bye bye
TTITLE13=Le temps qui court
EXTD=
EXTT0=
EXTT1=
EXTT2=
EXTT3=
EXTT4=
EXTT5=
EXTT6=
EXTT7=
EXTT8=
EXTT9=
EXTT10=
EXTT11=
EXTT12=
EXTT13=
PLAYORDER=
